<?xml version="1.0" standalone="no"?>
<!DOCTYPE svg PUBLIC "-//W3C//DTD SVG 20010904//EN"
 "http://www.w3.org/TR/2001/REC-SVG-20010904/DTD/svg10.dtd">
<svg version="1.0" xmlns="http://www.w3.org/2000/svg"
 width="218.000000pt" height="231.000000pt" viewBox="0 0 218.000000 231.000000"
 preserveAspectRatio="xMidYMid meet">

<g transform="translate(0.000000,231.000000) scale(0.100000,-0.100000)"
fill="#000000" stroke="none">
<path d="M1015 2182 c-22 -16 -234 -225 -472 -463 -286 -288 -434 -443 -438
-462 -22 -85 50 -167 134 -152 31 5 92 63 444 413 l407 407 408 -407 c321
-321 414 -407 440 -413 45 -9 102 20 126 65 39 74 50 62 -458 569 -451 451
-464 463 -507 468 -37 4 -50 0 -84 -25z"/>
<path d="M1025 1291 c-57 -36 -913 -904 -920 -934 -23 -91 58 -172 147 -146
24 6 143 119 435 411 l403 403 407 -407 c322 -321 415 -407 441 -413 45 -9
102 20 126 65 40 74 50 61 -462 573 -460 459 -468 467 -507 467 -22 0 -53 -9
-70 -19z"/>
</g>
</svg>
