<?xml version="1.0" standalone="no"?>
<!DOCTYPE svg PUBLIC "-//W3C//DTD SVG 20010904//EN"
 "http://www.w3.org/TR/2001/REC-SVG-20010904/DTD/svg10.dtd">
<svg version="1.0" xmlns="http://www.w3.org/2000/svg"
 width="225.000000pt" height="225.000000pt" viewBox="0 0 225.000000 225.000000"
 preserveAspectRatio="xMidYMid meet">

<g transform="translate(0.000000,225.000000) scale(0.100000,-0.100000)"
fill="#000000" stroke="none">
<path d="M1075 1721 c-16 -10 -264 -253 -550 -540 l-520 -521 0 -44 c0 -78 67
-123 136 -93 20 9 226 207 509 491 l475 476 480 -480 c276 -276 492 -484 509
-490 67 -25 131 22 131 96 l0 44 -525 526 c-289 289 -537 532 -552 540 -36 19
-57 18 -93 -5z"/>
</g>
</svg>
